<svg class="svg-icon" style="width: 1em; height: 1em;vertical-align: middle;fill: currentColor;overflow: hidden;" viewBox="0 0 1024 1024" version="1.1" xmlns="http://www.w3.org/2000/svg"><path d="M861.04 408.176C845.016 373.528 811.08 352 772.456 352H629.304l128.472-224.704c15.6-26.352 15.864-57.92 0.656-84.544C743.152 15.976 715.544 0 684.592 0c-19.384 0-38.36 6.68-53.424 18.8a39.28 39.28 0 0 0-2.208 1.92L193.784 426.464C164.92 451.448 149.792 487.16 152.264 524.608c4.256 64.64 56.344 113.384 121.16 113.384h135.976L271.76 900.832a37.392 37.392 0 0 0-0.4 0.8c-18.72 37.776-7.8 81.36 26.544 106 15.304 10.968 32.72 16.368 50 16.368 21.512 0 42.816-8.376 59.52-24.776 0.432-0.424 0.856-0.856 1.264-1.296L720.4 663.168a39.84 39.84 0 0 0-2.184-56.528 40.384 40.384 0 0 0-56.848 2.168l-311.008 334c-1.296 1.2-2.624 1.936-5.416-0.064-2.96-2.128-2.456-3.68-1.616-5.4l168.04-320.88a39.808 39.808 0 0 0-1.28-39.224 40.272 40.272 0 0 0-34.4-19.248H273.44c-25.176 0-39.632-19.424-40.896-38.616-0.584-8.888 1.432-21.8 14.336-32.8 0.456-0.384 0.904-0.784 1.344-1.2l434.136-404.784a4.504 4.504 0 0 1 2.24-0.592c0.776 0 2.6 0 3.888 2.248 1.288 2.256 0.352 3.816-0.048 4.48l-0.416 0.72L525.2 372.224a39.8 39.8 0 0 0 0.2 39.888 40.264 40.264 0 0 0 34.768 19.88h212.296c9.6 0 13.816 6 15.464 9.576 1.688 3.664 3.568 10.92-2.856 18.36a39.848 39.848 0 0 0 4.304 56.408 40.384 40.384 0 0 0 56.72-4.28c25.288-29.28 31.008-69.08 14.936-103.88z" fill="#4A90E2" /></svg>